<svg viewBox="0 0 32 32" xmlns="http://www.w3.org/2000/svg">
  <path d="M31.708 25.708L22 16l9.708-9.708c.105-.105.18-.227.229-.357.133-.356.057-.771-.229-1.057L27.122.292c-.286-.286-.702-.361-1.057-.229-.13.048-.252.124-.357.228L16 9.999 6.292.291c-.105-.104-.227-.18-.357-.228-.356-.133-.771-.057-1.057.229L.292 4.878c-.286.286-.361.702-.229 1.057.049.13.124.252.229.357L10 16 .292 25.708c-.104.105-.18.227-.229.357-.133.355-.057.771.229 1.057l4.586 4.586c.286.286.702.361 1.057.229.13-.049.252-.124.357-.229L16 22l9.708 9.708c.105.105.227.18.357.229.356.133.771.057 1.057-.229l4.586-4.586c.286-.286.362-.702.229-1.057-.049-.13-.124-.252-.229-.357z" fill="#000" fill-rule="nonzero"/>
</svg>
